<svg xmlns="http://www.w3.org/2000/svg" viewBox="0 0 1600 1000" preserveAspectRatio="none">
  <!-- Torn paper edge mask: genuinely irregular, jagged torn edges -->
  <!-- Top edge -->
  <path fill="white" d="M0 0h1600v52l-8 3-14-7-6 12-22-4-9 16-5-9-18 6-11-14-7 8-26-2-4 11-16-6-8 15-12-11-19 5-7-8-14 13-10-6-5 10-21-3-9 8-15-12-8 7-24 1-6-9-11 14-17-5-9 11-13-8-6 6-20 2-8-10-15 7-7-12-12 9-18-4-5 8-22-1-10-7-8 13-14-9-11 5-16 3-6-11-19 8-7-6-13 10-9-13-5 7-24 1-8-9-12 6-17-4-10 12-7-8-15 3-20-5-6 9-14-7-9 11-11-3-8 7-19-6-5-10-16 8-12 1-7-12-21 4-9 9-13-5-6 8-18-2-10-9-8 14-15-6-11 7-7-11-20 3-5 9-17-4-9 12-12-7-14 5-6-10-23 2-8 8-10-6-16 11-9-4-7-9-18 6-11 3-5-8-14 10-20-3-8 7-12-11-7 5-9 9-17-6-6-7-15 12-11-5-8 8-22 1-10-10-5 6-18 4-9-8-13 11-7-5-16 7z"/>
  <!-- Bottom edge -->
  <path fill="white" d="M0 1000h1600v-56l-11 4-8-10-16 7-5-13-13 6-9-8-21 3-7 11-12-5-10 9-18-7-6 12-14-4-8-9-19 5-11 8-7-12-15 6-9-7-22 2-6 10-13-5-8 13-17-8-10 4-12 9-5-11-20 3-7 8-16-4-9 12-11-6-8 7-14-10-6 5-19 1-10-8-7 11-15 4-12-9-5 7-21-3-9 10-8-6-16 8-11-12-7 5-13 9-6-7-18 2-9 11-14-5-8 8-20-4-5-10-12 7-7 3-17-9-10 12-9-6-14 4-6-8-22 5-8 7-11-11-16 6-7-10-19 3-5 9-13-4-8 12-21-7-10 5-6-9-15 8-9-6-12 10-7-5-18 1-8-8-14 6-11 4-5-11-20 9-9-3-7 7-16-6-12 10-8-8-13 5z"/>
  <!-- Left edge -->
  <path fill="white" d="M0 0h56l-3 11 10 8-7 16 13 5-6 13 8 9-3 21-11 7 5 12-9 10 7 18-12 6 4 14 9 8-5 19-8 11 12 7-6 15 7 9-2 22-10 6 5 13-13 8 8 17-4 10-9 12 11 5-3 20-8 7 4 16-12 9 6 11-7 8 10 14-5 6-1 19 8 10-11 7-4 15 9 12-7 5 3 21-10 9 6 8-8 16-12 11-5 7-9 13 7 6-2 18-11 9 5 14-8 8 4 20 10 5-7 12-3 7 9 17-12 10 6 9-4 14 8 6-5 22-7 8 11 11-6 16 10 7-3 19-9 5-4 13 12 8-5 21-7 10 9 6-10 15-8 9-6 12 1 7 8 18-6 8-4 14 11 5-9 20 3 9-7 7 6 16-10 12 8 8-5 13z"/>
  <!-- Right edge -->
  <path fill="white" d="M1600 0h-60l4 14-9 7 7 19-13 5 5 11-8 14 3 18-11 9 6 7-10 15 8 12-4 20 9 6-5 16-8 8 12 11-7 14 3 9-10 22 8 7-6 10 5 17-12 9 7 11-3 8-9 19 11 6-5 14-8 12 4 16-10 7 7 20-12 5 6 9-4 15-9 11 8 8-3 18-11 6 5 13 9 10-7 7-4 21 12 8-6 11 3 16-10 9 7 14-5 6-8 19 11 10-6 8-4 15 9 12-3 7-10 20 8 5-7 13 4 8-9 17 12 9-6 11 3 14-11 6 5 22-8 7 10 10-7 16 4 9-9 14 12 5-6 18-3 9 8 11-10 7 5 20-7 8 4 13-12 6 9 15-5 8z"/>
</svg>
