<svg xmlns="http://www.w3.org/2000/svg" viewBox="0 0 1600 1000" preserveAspectRatio="none">
  <path fill="white" d="M0 0h1600v82c-44-10-78-6-118 12-41 19-81 18-128 2-54-18-97-17-141 2-46 19-84 19-134 0-49-19-93-17-146 4-51 20-91 20-140 0-50-20-95-19-146 2-51 21-92 21-143 0-52-21-95-22-146-2-49 19-88 20-129 2-44-19-80-22-129-10V0Z"/>
  <path fill="white" d="M0 1000h1600v-88c-47 10-84 6-128-13-41-18-79-18-126-2-56 19-100 19-146-1-45-19-84-19-133-1-50 19-94 18-146-4-50-20-91-20-141 1-50 21-94 20-145 0-51-20-91-20-142 0-52 20-95 21-146 0-49-20-88-22-128-8V1000Z"/>
  <path fill="white" d="M0 0h78c-11 39-6 72 14 112 18 36 17 70-2 111-19 42-19 78 1 119 18 38 18 73-2 113-19 39-19 77 0 117 20 42 20 80 0 121-18 38-18 75 1 116 20 42 20 78-2 117-20 35-21 69-4 108 18 41 20 77 6 112-14 34-14 70 0 107H0V0Z"/>
  <path fill="white" d="M1600 0h-78c11 39 6 72-14 112-18 36-17 70 2 111 19 42 19 78-1 119-18 38-18 73 2 113 19 39 19 77 0 117-20 42-20 80 0 121 18 38 18 75-1 116-20 42-20 78 2 117 20 35 21 69 4 108-18 41-20 77-6 112 14 34 14 70 0 107h90V0Z"/>
</svg>
